<svg xmlns="http://www.w3.org/2000/svg" viewBox="0 0 64 64">
  <circle cx="32" cy="32" r="32" fill="#e8734a"/>
  <g transform="translate(16, 16) scale(0.5)">
    <path fill="white" d="M32 0C14.3 0 0 14.3 0 32s14.3 32 32 32 32-14.3 32-32S49.7 0 32 0zm21.8 20H44c-.9-3.8-2.2-7.2-3.9-10.1 4.6 2 8.4 5.6 11.7 10.1zM32 4.2c2.7 3.1 4.8 7.1 6.2 11.8H25.8c1.4-4.7 3.5-8.7 6.2-11.8zM4.6 36C4.2 34.7 4 33.4 4 32s.2-2.7.6-4h11.6c-.3 1.3-.4 2.6-.4 4s.1 2.7.4 4H4.6zm1.6 4h9.8c.9 3.8 2.2 7.2 3.9 10.1C15.3 48 11.5 44.4 6.2 40zM16 24H6.2C9.5 19.6 13.3 16 17.9 14c-1.7 2.9-3 6.3-3.9 10zm16 35.8c-2.7-3.1-4.8-7.1-6.2-11.8h12.4c-1.4 4.7-3.5 8.7-6.2 11.8zM43.8 44H20.2c-.3-1.3-.5-2.6-.5-4h24.6c0 1.4-.2 2.7-.5 4zm.5-8H19.7c-.3-1.3-.4-2.6-.4-4s.1-2.7.4-4h24.6c.3 1.3.4 2.6.4 4s-.1 2.7-.4 4zM46 50.1C47.7 47.2 49 43.8 49.9 40h9.8C56.5 44.4 52.6 48 46 50.1zM50.2 36c.3-1.3.4-2.6.4-4s-.1-2.7-.4-4h11.6c.4 1.3.6 2.6.6 4s-.2 2.7-.6 4H50.2z"/>
  </g>
</svg>
